<?xml version="1.0" encoding="UTF-8"?>
<svg id="Layer_2" data-name="Layer 2" xmlns="http://www.w3.org/2000/svg" viewBox="0 0 58.38 60.92">
  <g id="Layer_1-2" data-name="Layer 1">
    <g>
      <path d="M58.38,46.64c0-.41-.2-.79-.53-1.03l-9.62-6.92v-8.92l.43.38c.24.21.54.31.84.31.35,0,.7-.15.95-.43.46-.53.41-1.33-.12-1.79L30.46,10.85v-3.23h3.81c.7,0,1.27-.57,1.27-1.27s-.57-1.27-1.27-1.27h-3.81V1.27c0-.7-.57-1.27-1.27-1.27s-1.27.57-1.27,1.27v3.81h-3.81c-.7,0-1.27.57-1.27,1.27s.57,1.27,1.27,1.27h3.81v3.23L8.05,28.23c-.53.46-.58,1.26-.12,1.79.46.53,1.26.58,1.79.12l.43-.38v8.92L.53,45.61c-.33.24-.53.62-.53,1.03v12.69c0,.06.03.1.03.16,0,.05-.03.1-.03.16,0,.7.57,1.27,1.27,1.27h55.84c.7,0,1.27-.57,1.27-1.27,0-.06-.03-.1-.03-.16,0-.05.03-.1.03-.16v-12.69h0ZM10.15,58.38H2.54v-11.09l7.61-5.47v16.56ZM35.11,58.38h-12.27v-9.09c0-3.38,2.75-6.13,6.13-6.13s6.13,2.75,6.13,6.13v9.09h0ZM45.69,58.38h-8.04v-9.09c0-4.78-3.89-8.67-8.67-8.67s-8.67,3.89-8.67,8.67v9.09h-7.61v-30.83l16.5-14.43,16.5,14.43v30.83ZM55.84,58.38h-7.61v-16.56l7.61,5.47v11.09Z" fill="#010101"/>
      <path d="M22.84,29.19c0,3.5,2.85,6.35,6.35,6.35s6.35-2.85,6.35-6.35-2.85-6.35-6.35-6.35-6.35,2.85-6.35,6.35ZM33,29.19c0,2.1-1.71,3.81-3.81,3.81s-3.81-1.71-3.81-3.81,1.71-3.81,3.81-3.81c2.1,0,3.81,1.71,3.81,3.81Z" fill="#010101"/>
    </g>
  </g>
</svg>