<?xml version="1.0" encoding="UTF-8"?>
<svg id="Layer_2" data-name="Layer 2" xmlns="http://www.w3.org/2000/svg" viewBox="0 0 85.59 52.16">
  <g id="Layer_1-2" data-name="Layer 1">
    <g>
      <path d="M82.57,18.73l-22.36-4.44v2.59s21.85,4.31,21.85,4.31c.58.13.99.66.99,1.24v25.89c0,.71-.58,1.27-1.27,1.27h-21.57V8.04c0-1.88-1.35-3.45-3.2-3.76L29.12.05c-1.12-.18-2.23.13-3.1.86-.86.71-1.35,1.78-1.35,2.89v10.62L3.02,18.73c-1.8.38-3.02,1.9-3.02,3.71v25.89c0,2.11,1.7,3.81,3.81,3.81h22.35c.64.07,1.45,0,2.33,0h30.46c.36,0,.67-.14.9-.37-.23.23-.55.37-.9.37h22.84c2.11,0,3.81-1.7,3.81-3.81v-25.89c0-1.8-1.22-3.33-3.02-3.71ZM2.54,48.32v-25.89c0-.58.41-1.12.99-1.24l21.15-4.18v32.58H3.81c-.69,0-1.27-.56-1.27-1.27ZM37.37,49.59v-11.42c0-.71.56-1.27,1.27-1.27h7.61c.69,0,1.27.56,1.27,1.27v11.42h-10.15ZM46.25,34.36h-7.61c-2.11,0-3.81,1.7-3.81,3.81v11.42h-7.61V3.81c0-.38.15-.71.46-.96.23-.2.51-.3.81-.3.08,0,.15,0,.23.03l27.89,4.21c.61.1,1.07.63,1.07,1.27v41.55h-7.61v-11.42c0-2.11-1.7-3.81-3.81-3.81Z" fill="#010101"/>
      <path d="M69.09,29.29h5.08c.71,0,1.27-.56,1.27-1.27s-.56-1.27-1.27-1.27h-5.08c-.71,0-1.27.56-1.27,1.27s.56,1.27,1.27,1.27Z" fill="#010101"/>
      <path d="M69.09,36.9h5.08c.71,0,1.27-.56,1.27-1.27s-.56-1.27-1.27-1.27h-5.08c-.71,0-1.27.56-1.27,1.27s.56,1.27,1.27,1.27Z" fill="#010101"/>
      <path d="M69.09,44.52h5.08c.71,0,1.27-.56,1.27-1.27s-.56-1.27-1.27-1.27h-5.08c-.71,0-1.27.56-1.27,1.27s.56,1.27,1.27,1.27Z" fill="#010101"/>
      <path d="M11.42,29.29h5.08c.71,0,1.27-.56,1.27-1.27s-.56-1.27-1.27-1.27h-5.08c-.71,0-1.27.56-1.27,1.27s.56,1.27,1.27,1.27Z" fill="#010101"/>
      <path d="M16.5,34.36h-5.08c-.71,0-1.27.56-1.27,1.27s.56,1.27,1.27,1.27h5.08c.71,0,1.27-.56,1.27-1.27s-.56-1.27-1.27-1.27Z" fill="#010101"/>
      <path d="M16.5,41.98h-5.08c-.71,0-1.27.56-1.27,1.27s.56,1.27,1.27,1.27h5.08c.71,0,1.27-.56,1.27-1.27s-.56-1.27-1.27-1.27Z" fill="#010101"/>
      <path d="M46.25,14.06h5.08c.71,0,1.27-.56,1.27-1.27s-.56-1.27-1.27-1.27h-5.08c-.71,0-1.27.56-1.27,1.27s.56,1.27,1.27,1.27Z" fill="#010101"/>
      <path d="M46.25,21.67h5.08c.71,0,1.27-.56,1.27-1.27s-.56-1.27-1.27-1.27h-5.08c-.71,0-1.27.56-1.27,1.27s.56,1.27,1.27,1.27Z" fill="#010101"/>
      <path d="M52.6,28.02c0-.71-.56-1.27-1.27-1.27h-5.08c-.71,0-1.27.56-1.27,1.27s.56,1.27,1.27,1.27h5.08c.71,0,1.27-.56,1.27-1.27Z" fill="#010101"/>
      <path d="M38.64,26.75h-5.08c-.71,0-1.27.56-1.27,1.27s.56,1.27,1.27,1.27h5.08c.71,0,1.27-.56,1.27-1.27s-.56-1.27-1.27-1.27Z" fill="#010101"/>
      <path d="M38.64,11.52h-5.08c-.71,0-1.27.56-1.27,1.27s.56,1.27,1.27,1.27h5.08c.71,0,1.27-.56,1.27-1.27s-.56-1.27-1.27-1.27Z" fill="#010101"/>
      <path d="M38.64,19.13h-5.08c-.71,0-1.27.56-1.27,1.27s.56,1.27,1.27,1.27h5.08c.71,0,1.27-.56,1.27-1.27s-.56-1.27-1.27-1.27Z" fill="#010101"/>
    </g>
  </g>
</svg>