<?xml version="1.0" encoding="UTF-8"?>
<svg id="Layer_2" data-name="Layer 2" xmlns="http://www.w3.org/2000/svg" viewBox="0 0 601.12 787.86">
  <g id="Layer_1-2" data-name="Layer 1">
    <g>
      <g>
        <path d="M238.61,276.91c42.93-10.96,60.07-30.51,71.7-68.35,2.03-6.6-1.14-11.01-.94-16.29l.97-26.15c.46-12.48-5.46-26.3-18.99-30.94,3.84,13.13,9.84,22.51,8.96,35.17l3.6,30.25c-3.99,17.81-17.27,34.28-29.98,47.17-11.05,11.2-26.98,14.64-35.32,29.12Z" fill="#fff"/>
        <path d="M375.98,212.03c-7.37-21.56-25.72-40.04-40.93-30.35,22.44,8.37,28.22,27.55,40.93,30.35Z" fill="#fff"/>
      </g>
      <path d="M587.19.06c-2.82,4.55-5.34,9.29-7.84,14.03-4.24,8.06-8.7,15.95-13.77,23.52-5.21,7.78-10.86,15.26-16.73,22.54-6.69,8.29-13.65,16.35-20.62,24.41-.09.1-.16.21-.21.31-.17.06-.33.15-.48.29-3.26,2.86-6.29,5.97-9.07,9.29-14.98,11.62-31.29,21.64-46.97,33.36l-58.32,43.55-16.99,16.93c-10.72,10.68-17.77,20.98-19.93,36.54l-10.53,75.81c-7.39-4.17-13.54-5.21-22.35-4,5.25-12.71,4.7-26.12-5.22-34.79-4.34-3.79-14-3.67-19.4-.8l-62.39,33.16c-11.11-7.58-23.94-7.43-36.93-2.1.53-12.43-.7-23.21-4.9-34.76-4.15-11.42,20.22-25.01,21.73-57.05.23-4.93.7-10.29-5.12-13.11-2.15,11.81-5.56,21.42-9.93,31.97l-10.38,25.03c-4.22-4.69-4.04-12.2-11.75-16.56l7.25,44.61c3.7,22.77-4.57,46.34-15.43,66.48-4.08,7.57-13.15,8.62-20.72,8.5-8.12-.12-14.76-2.45-16.15-11.48,10.67,5.76,19.22,1.89,26.65-4.97,7.28-6.73,10.53-13.21,9.16-23.32-1.13-8.3-5.82-14.52-15.83-17.38-5.17-1.48-9.87-1.67-13.89,1-4.52,3.01-5.68,6.86-6.41,12.81l-2.73,22.35c-1.92-10.14-.13-20.44-4.48-30.75-5.65-13.4-11.01-28.16-8.59-43.29l13.7-36.4,5.48-32.47c2.41-14.29,8.04-31.65,21.57-40.4l41.85-14.15,6.35-2.96c1.71-.79,1.36-4.42-.41-7.4,16.97-11.91,30.99-25.62,44.92-40.74l34.55-37.5L336.93.06l-13.83-.06-43.69,49.7-38.09,40-31.22,33.84c-15.19,3.49-35.42,2.5-44.15,16.63l-11.35,18.35c-6.98,11.28-8.87,24.46-13.28,37.16-10.27,10.61-18.87,22.21-26.56,35.03-9.4,12.8-16.75,26.03-20.08,41.74-7.66,7.62-13.11,16.63-14.66,27.16-7.8,19.4,7.94,31.09,6.88,53.02-10.03,21.82-18.71,43.26-21.18,67.31l2.92,53.73c-1.42,22.29,2.29,38.19,11.95,58.02,5.04,10.34,9.32,28.05,8.64,39.58-.85,14.47-12.1,26.48-16.25,39.14l-13.47,41.12-8.85,31.14-39.61,81.77-11.05,23.44h15.43l9.72-21.23c15.26-33.35,31.73-65.68,42.22-101,4.31-14.5,5.6-27.92,13.17-41.46l11.3-28.15,6.44-19.26c2.2-13.86-2.3-27.58-3.79-41.27-1.43-27.15.62-53.2,4.71-80.13,13.81-21.91,23.11-44.84,30.48-69.46,8.19-9.49,14.46-18.85,20.52-30.17,22.41,10.93,46.98,5.49,56.43-17.09,5.45-13.01,10-25.74,11.64-40.53l33.82-.15c-.47,4.98-3.69,7-7.2,9.23-14.22,4.57-22.8,15.94-27.8,29.64-20.58,15.62-46.28,53.38-34.09,49.81.81-.24,30.23-29.83,38.51-44.81,6.43-11.64,14.42-20.92,28.04-24.34,6.13-1.54,8.94-9.05,14.08-11.81l45.97-24.7c4.58,4.87,9.01,7,15.03,4.88-.93-4.44-4.7-4.88-7.75-7.47,2.85-4.21,9.08-6.15,12.72-5.26,6.23,5.65,2.94,15.62-3.05,21.51l-23.11,22.75c-9.47,9.32-19.44,15.61-28.45,25.83l-11.19,12.69-26.52,37.37c-5.98,8.43-15.38,16.55-13.38,29.17,19.3-19.1,36.29-38.68,49.49-60.62,5.5-9.14,10.01-15.63,19.94-20.81l31.04-26.92c-3.56,9.69-12.63,14.71-15.76,24.3l-7.41,22.65-8.84,27.21-24.22,41.76-2.74,11.86c-2.33,10.08,4.3,24.42,16.41,22.93,16.9-2.09,33.61-9.8,47.42-19.43,10.08-7.02,18.27-14.5,30.63-17.44.3,3.74.91,7.42,2.51,8.79,2.82,2.42,7.58,1.74,12.55,2.74l-56.75,40.76-17.84,18.15c-10.08,10.25-19.64,23.01-25,36.41l-12.6,31.54c-10.21,25.56-23.92,47.61-41.04,69.08-13.69,17.16-21.79,42.29-27.82,54.13-.66,3.03-1.82,5.93-3.14,8.76.04.51.03,1.04-.04,1.58-4.04,12.96-8.12,25.9-11.98,38.91-4.39,14.79-8.23,29.83-9.61,45.23-.11,1.26-.2,2.55-.28,3.85h16.31c.81-4.39,1.5-8.81,2.11-13.23,2.47-17.77,3.77-35.72,7.16-53.36,1.34-6.95,3.02-13.82,5.2-20.55.57-.6,1.08-1.21,1.55-1.81.55-1.78,1.2-3.53,1.93-5.26,0-.06,0-.11,0-.17,1.32-5.9,4.23-11.2,6.57-16.73,0,0,0-.02,0-.02l.04-.08c.52-1.23,1.02-2.48,1.46-3.74.12-.34.38-.51.66-.57,8.44-26.17,39.6-47.02,51.09-73.65l19.74-45.77c4.46-10.35,6.61-19.78,13.06-29.47,8.08-12.13,14.18-28.46,27.3-36.23l55.39-32.84c10.28-6.09,17.51-19.75,15.55-32.16-1.53-9.68-13.18-13.9-21.63-12.32l13.71-45.9c3.25-10.87-1.4-22.38-5.3-32.47-3.98-2.13-7.21-3.19-10.43-6.29,1.52-6.68,2.25-12.8-.1-19.6,11.12-24.06,15.2-50.58,15.72-77.28.19-10.03,3.69-15.66,9.34-22.84,7.87-10,15.7-18.43,26.37-25.8l72.05-49.79c1.72-.69,3.45-1.34,5.14-2.13,6.22-2.91,11.25-7.79,17.41-10.82.35-.17.56-.41.67-.68,14.32-11.66,29.11-24.13,36.83-41.3,7.32-8.19,14.39-16.69,19.82-26.26,1.63-2.86,3.02-5.8,4.26-8.8.83-1.45,1.67-2.89,2.51-4.32,4.84-8.22,9.68-16.44,14.52-24.66.22-.37.25-.72.18-1.04,2.06-2.62,3.95-5.35,5.37-8.39.11-.23.14-.45.14-.66.2-.28.41-.55.61-.82h-13.94ZM160.17,302.17c.62-5.15,8.54-4.23,11.77-3.23,9.03,2.8,10.59,20.1,5.81,25.3-2.43,2.64-8.49,6.52-14.08,4.54-2.66-7.59-4.5-18.18-3.49-26.61ZM96.27,434.16c-7.42,9.22-10.94,19.63-13.24,32.67-3.08-17.05-4.83-34.6-3.19-52.87l9.18-44.54c4.06,6.7,2.63,12.33,2.91,18.68,1.27,28.6,11.71,36.89,4.34,46.06ZM121.36,386.24l-14.6,28.33c-3.44-12.2-2.59-22.92-2.34-34.53.29-13.48-4.51-25.48-8.35-37.9-2.95-9.55-3.19-19.31-8.55-28.52,1.83-13.38,7.58-25.28,18.14-34.08,4.87-16.87,12.74-31.15,22.21-45.58.68,6.2-3.25,10.57-3.8,16.28-1.66,17.12,2.37,33.31,9.1,48.78,6.14,14.1-.02,33.59,13.55,54.31-11.95,8.97-18.72,20.04-25.35,32.91ZM349.69,307.75c4.26-3.2,13.54.48,15.04,5.35,1.32,4.26-1.63,8.68-4.95,11.88-6.78.85-11.78.39-17.48-.9,1.56-6.04,2.72-12.82,7.38-16.32ZM303.28,443.68c-3.11,5.39-16.84,10.85-23.43,9.9-10.75-1.54-8.5-14.91-4.73-20.1l27.85-38.36c6.33-8.72,8.02-19.57,10.45-29.72l5.87-24.51c2.39-10,9.22-18.42,16.33-25.54,1.33,7.46,2.7,12.96,7.02,15.14,6.59,3.33,11.82,1.71,20.26-.61l-22.68,46.64-28.09,47.72-8.84,19.43ZM379.98,424.9c1.07,1.33.72,4.23-.86,7.05-1.1,1.96-3.76,2.38-7.67.78-2.41-.99-3.6-1.46-3.66-3.73-.06-2.41,1.24-3.89,4.41-5.03,2.59-.93,6.09-1.17,7.78.93ZM360.95,411.48c-14.68,7.19-31.37,14.57-46.23,27.37l33.74-50.42c7.41-11.07,11.14-23.49,15.77-36.28l12.64,2.46-15.92,56.86ZM374.61,343.37c0,3.3-6.01,5.3-7.45,2.11-1.07-2.36.48-8.78,2.36-9.47,4.46.16,5.09,5.16,5.09,7.37Z" fill="#fff"/>
    </g>
  </g>
</svg>