<?xml version="1.0" encoding="UTF-8"?>
<svg id="Layer_2" data-name="Layer 2" xmlns="http://www.w3.org/2000/svg" viewBox="0 0 60.18 60.2">
  <g id="Layer_1-2" data-name="Layer 1">
    <path d="M58.73,26.45l-.05-.06-.05-.02-.02-.05L33.84,1.55c-1-1-2.33-1.55-3.75-1.55s-2.75.55-3.75,1.55L1.54,26.37c-2.05,2.06-2.05,5.42,0,7.48.94.94,2.19,1.49,3.51,1.54h.14s1.31,0,1.31,0v18.55c0,3.45,2.8,6.25,6.25,6.25h9.7c.82,0,1.48-.67,1.48-1.48v-14.31c0-1.81,1.48-3.29,3.29-3.29h5.72c1.81,0,3.29,1.47,3.29,3.29v14.31c0,.82.66,1.48,1.48,1.48h9.7c3.45,0,6.25-2.8,6.25-6.25v-18.55h1.22c1.41,0,2.75-.55,3.75-1.55,2.01-2.02,2.05-5.33.09-7.4ZM50.72,33.92v20.03c0,1.81-1.47,3.29-3.29,3.29h-8.22v-12.83c0-3.45-2.8-6.25-6.25-6.25h-5.72c-3.45,0-6.25,2.8-6.25,6.25v12.83h-8.22c-1.81,0-3.29-1.47-3.29-3.29v-20.03c0-.82-.67-1.48-1.48-1.48h-2.74c-.61-.01-1.18-.25-1.61-.68-.88-.88-.92-2.3-.08-3.22L28.45,3.65c.44-.44,1.03-.68,1.65-.68s1.21.24,1.65.68l24.81,24.81c.91.91.9,2.39,0,3.3-.44.44-1.03.68-1.65.68h-2.7c-.82,0-1.48.67-1.48,1.48Z" fill="#010101"/>
  </g>
</svg>