<?xml version="1.0" encoding="UTF-8"?>
<svg id="Layer_2" data-name="Layer 2" xmlns="http://www.w3.org/2000/svg" viewBox="0 0 60.92 38.07">
  <g id="Layer_1-2" data-name="Layer 1">
    <path d="M59.65,2.54c-9.96,0-15.49,2.55-15.72,2.66-.33.15-.58.44-.68.79-.09.31-.05.63.08.92-1.92-.73-4.6-1.78-7.28-2.98-4.57-2.04-7.53-1.42-10.8,1.16h-10.16c.05-.4.1-.79.13-1.16.03-.39-.11-.77-.39-1.03C12.66.82,3.96.16,1.35,0c-.36-.02-.69.1-.95.34-.25.24-.4.57-.4.92v22.84c0,.7.57,1.27,1.27,1.27h7.61c.55,0,1.04-.35,1.21-.88.03-.08.13-.41.3-.93.29.3.6.63.94.98,1.13,1.18,2.3,2.41,3.09,3.07,4.73,3.96,10.41,8.23,11.54,8.97.93.61,2.95,1.48,4.51,1.48,1.25,0,2.21-.29,2.88-.85.89.35,1.91.35,2.89-.03,1.16-.45,2.1-1.35,2.64-2.44,1,.21,2.14.06,3.19-.46,1.02-.51,1.75-1.3,2.12-2.21,1.01.05,2.05-.3,2.91-1.04,1.16-.99,1.64-2.42,1.37-3.84l2.02-1.36c.14.45.26.84.34,1.15.15.55.65.93,1.22.93h7.61c.7,0,1.27-.57,1.27-1.27V3.81c0-.7-.57-1.27-1.27-1.27ZM7.96,22.84H2.54V2.63c4.08.32,8.48,1.02,10.08,1.8-.67,5.56-3.72,15.43-4.66,18.41ZM45.43,29.11c-.49.42-1.16.56-1.54.32-.98-.79-4.96-4.87-7.44-7.46-.48-.51-1.29-.53-1.79-.04-.51.48-.52,1.29-.04,1.79.59.61,5.33,5.56,7.23,7.29-.15.55-.68.89-.94,1.02-.81.41-1.66.34-1.98.05-.01-.01-.03-.02-.04-.03-.01,0-.02-.02-.03-.03-1.52-1.22-5.34-5.27-6.2-6.21-.48-.52-1.28-.55-1.79-.08-.52.47-.55,1.28-.08,1.79.04.04,3.76,4.06,5.87,5.95-.24.6-.74,1.13-1.35,1.36-.39.15-.95.24-1.46-.23,0,0-.02,0-.02-.02,0,0,0-.01-.02-.02-1.81-1.53-5.51-5.47-6.24-6.24-.48-.51-1.28-.54-1.79-.06-.51.48-.54,1.28-.06,1.79.86.92,3.42,3.63,5.34,5.44-.16.02-.36.04-.6.04-.85,0-2.37-.57-3.11-1.06-.89-.59-6.48-4.75-11.3-8.79-.68-.57-1.85-1.79-2.89-2.88-.77-.8-1.46-1.52-1.93-1.95,1.06-3.5,2.59-8.86,3.44-13.23h7.79c-1.73,1.74-4.07,5.24-3.46,7.8.26,1.1,1.03,1.91,2.18,2.29,2.88.95,5.5.04,7.45-2.55.81-.12,1.25-.31,1.91-.6.24-.11.52-.23.89-.38,1.45,1.36,3.41,2.95,5.47,4.62,3.73,3.02,7.96,6.44,8.91,8.42.47.98-.04,1.61-.38,1.91ZM47.33,24.89c-1.75-2.34-5.34-5.25-8.84-8.08-2.3-1.86-4.48-3.62-5.87-5.01-.35-.35-.87-.46-1.33-.3-.86.31-1.38.55-1.8.73-.63.28-.85.38-1.7.47-.38.04-.72.24-.93.56-1.79,2.68-3.65,2.45-4.89,2.04-.4-.13-.47-.3-.51-.46-.27-1.11,1.07-3.71,2.8-5.44,4.12-4.13,6.25-5.16,10.74-3.15,4.26,1.91,8.52,3.46,9.83,3.93,1.49,3.62,3.5,9.25,4.81,13.16l-2.32,1.56ZM58.38,25.38h-5.4c-1.2-3.92-4.76-14.14-6.74-18.36,1.94-.66,6.1-1.79,12.14-1.93v20.29Z" fill="#010101"/>
  </g>
</svg>